<svg xmlns="http://www.w3.org/2000/svg" xmlns:xlink="http://www.w3.org/1999/xlink" width="1135" height="507" viewBox="0 0 1135 507">
  <defs>
    <clipPath id="clip-Indique_Ganhe_P_B">
      <rect width="1135" height="507"/>
    </clipPath>
  </defs>
  <g id="Indique_Ganhe_P_B" data-name="Indique Ganhe P&amp;B" clip-path="url(#clip-Indique_Ganhe_P_B)">
    <g id="Grupo_7561" data-name="Grupo 7561" transform="translate(16135 13173)">
      <path id="Caminho_1426" data-name="Caminho 1426" d="M778.3,1942.624q25.544,0,46.6-10.474a95.764,95.764,0,0,0,34.747-28.879,97.591,97.591,0,0,0,17.835-41.886,85.576,85.576,0,0,0,1.612-16.8q0-19.332-8.514-33.828t-24.84-22.44q-16.342-7.935-38.663-7.939H742.864L714.1,1942.624Zm2.99-123.121h15.419q17.031,0,26.467,8.284t9.436,23.7a50.476,50.476,0,0,1-.922,9.9q-3.686,19.8-16.8,30.724t-32.921,10.933H766.337Z" transform="translate(-16563.738 -14914.904)" fill="#fff"/>
      <path id="Caminho_1427" data-name="Caminho 1427" d="M430.67,2324.879a56.219,56.219,0,0,0,.892-10.531q0-18.026-11.335-28.465T389.6,2275.44a60.2,60.2,0,0,0-27.309,6.248,56.828,56.828,0,0,0-20.859,17.85A69.715,69.715,0,0,0,329.3,2338.09q0,18.374,11.511,29.093T371.6,2377.9a57.252,57.252,0,0,0,32.485-9.639,55.354,55.354,0,0,0,20.882-24.809H392.474a19.462,19.462,0,0,1-17.49,9.639q-7.143,0-11.423-4.1t-4.284-11.959a23.043,23.043,0,0,1,.176-3.392h69.073A71.638,71.638,0,0,0,430.67,2324.879Zm-29.985-6.78H362.309q2.68-8.747,8.659-13.479a21.666,21.666,0,0,1,13.831-4.728q7.315,0,11.779,3.828t4.464,10.979a29.382,29.382,0,0,1-.356,3.4Z" transform="translate(-16326.242 -15220.453)" fill="#fff"/>
      <path id="Caminho_1428" data-name="Caminho 1428" d="M850.661,2815.3a4.4,4.4,0,0,1-4.345-3.7l-1.413-8.755H825.016l-5.2,10.072a4.395,4.395,0,0,1-3.912,2.385h-18a4.4,4.4,0,0,1-3.874-6.489l37.986-70.516a4.4,4.4,0,0,1,3.874-2.3H855.8a4.4,4.4,0,0,1,4.33,3.6l13.057,70.516a4.4,4.4,0,0,1-4.329,5.206Zm-9.168-34.318-1.221-7.737-3.989,7.737Z" transform="translate(-16612.748 -15504.709)" fill="#fff"/>
      <path id="Caminho_1429" data-name="Caminho 1429" d="M1039.583,2815.975c-8.4,0-15.354-2.278-20.671-6.768-5.535-4.674-8.341-11.381-8.341-19.937a46.158,46.158,0,0,1,.662-7.553l7.338-42.108a4.4,4.4,0,0,1,4.337-3.644h17.176a4.406,4.406,0,0,1,4.337,5.168l-7.427,42.04a24.249,24.249,0,0,0-.344,2.9c0,2.722.926,3.591,1.229,3.878,1.11,1.045,3.177,1.263,4.716,1.263a9.871,9.871,0,0,0,6.891-2.3c1.8-1.612,2.955-3.973,3.522-7.22l7.434-42.108a4.4,4.4,0,0,1,4.337-3.637h17.176a4.4,4.4,0,0,1,4.333,5.168l-7.434,42.109a40.978,40.978,0,0,1-7.629,18.045,35.982,35.982,0,0,1-14.064,11.132A43.254,43.254,0,0,1,1039.583,2815.975Z" transform="translate(-16746.719 -15504.678)" fill="#fff"/>
      <path id="Caminho_1430" data-name="Caminho 1430" d="M1226.974,2815.271a4.4,4.4,0,0,1-4.333-5.168l9.134-51.79h-13.436a4.4,4.4,0,0,1-4.337-5.172l2.412-13.562a4.406,4.406,0,0,1,4.337-3.629h54.542a4.4,4.4,0,0,1,4.341,5.141l-2.3,13.559a4.4,4.4,0,0,1-4.337,3.664h-15.09l-9.406,53.321a4.4,4.4,0,0,1-4.333,3.637Z" transform="translate(-16872.234 -15504.678)" fill="#fff"/>
      <path id="Caminho_1431" data-name="Caminho 1431" d="M1409.619,2814.333a36.666,36.666,0,0,1-17.835-4.26,30.462,30.462,0,0,1-12.25-12.181,35.916,35.916,0,0,1-4.264-17.609,49.572,49.572,0,0,1,5.865-24.167,42.835,42.835,0,0,1,16.491-16.82,47.2,47.2,0,0,1,23.734-6.006,37.551,37.551,0,0,1,17.95,4.192,30.2,30.2,0,0,1,12.315,12.085,35.5,35.5,0,0,1,4.272,17.46,50.162,50.162,0,0,1-5.861,24.25,42.872,42.872,0,0,1-16.541,16.985A47.138,47.138,0,0,1,1409.619,2814.333Zm9.543-56.456a15.93,15.93,0,0,0-9.245,2.679,18.25,18.25,0,0,0-6.335,7.369,23.928,23.928,0,0,0-2.3,10.577c0,3.675.911,6.4,2.783,8.345s4.506,2.821,8.18,2.821a15.809,15.809,0,0,0,9.187-2.653,18.22,18.22,0,0,0,6.289-7.449,24.39,24.39,0,0,0,2.331-10.607c0-3.66-.907-6.366-2.768-8.276s-4.506-2.806-8.123-2.806Z" transform="translate(-16971.811 -15503.036)" fill="#fff"/>
      <path id="Caminho_1432" data-name="Caminho 1432" d="M1669.9,2815.271a4.4,4.4,0,0,1-4.337-5.168l12.456-70.516a4.4,4.4,0,0,1,4.333-3.637h43.2a4.4,4.4,0,0,1,4.333,5.172l-2.412,13.559a4.4,4.4,0,0,1-4.333,3.633h-22.3l-1.007,5.861h17.785a4.4,4.4,0,0,1,4.333,5.176l-2.3,12.958a4.406,4.406,0,0,1-4.337,3.633h-19.343l-1.24,6.963h20.759a4.406,4.406,0,0,1,4.333,5.176l-2.412,13.559a4.4,4.4,0,0,1-4.333,3.633Z" transform="translate(-17150.936 -15504.678)" fill="#fff"/>
      <path id="Caminho_1433" data-name="Caminho 1433" d="M1850.049,2814.4c-8.513,0-15.626-1.937-21.142-5.742a20.661,20.661,0,0,1-9.076-17.732,30.2,30.2,0,0,1,.226-3.2,4.406,4.406,0,0,1,4.376-3.913h17.881a4.406,4.406,0,0,1,4.391,4.751c-.149,1.853.417,2.446.6,2.637.7.739,2.335.85,3.246.85a6.05,6.05,0,0,0,3.522-.815c.23-.176.513-.383.513-1.313,0-.486-.077-.976-.991-1.619a45.966,45.966,0,0,0-8.039-4.062,81.768,81.768,0,0,1-10.037-4.839,25.647,25.647,0,0,1-7.7-7.074,19.8,19.8,0,0,1-3.56-11.905,24.5,24.5,0,0,1,4.211-14.577,26.71,26.71,0,0,1,11.614-9.383,39.966,39.966,0,0,1,16.02-3.062,38.812,38.812,0,0,1,14.5,2.58,23.783,23.783,0,0,1,10.653,8.039,21.073,21.073,0,0,1,3.958,12.69,20.691,20.691,0,0,1-.142,2.825,4.4,4.4,0,0,1-4.36,3.786h-18.329a4.406,4.406,0,0,1-4.307-5.3v-.306a1.469,1.469,0,0,0-.5-1.294,3.659,3.659,0,0,0-2.435-.632,5.131,5.131,0,0,0-3.173.831,1.348,1.348,0,0,0-.559,1.294c0,.295,0,.766,1.007,1.531a48.6,48.6,0,0,0,7.974,4.322,98,98,0,0,1,10.164,5.275,26.344,26.344,0,0,1,7.782,7.4,20.507,20.507,0,0,1,3.51,12.02,23.9,23.9,0,0,1-4.069,13.609,26.3,26.3,0,0,1-11.407,9.249A41.037,41.037,0,0,1,1850.049,2814.4Z" transform="translate(-17246.191 -15503.104)" fill="#fff"/>
      <path id="Caminho_1434" data-name="Caminho 1434" d="M2028.614,2814.476a38.1,38.1,0,0,1-17.812-4.016,29.149,29.149,0,0,1-12.142-11.687,34.49,34.49,0,0,1-4.18-17.127,43.511,43.511,0,0,1,.766-8.23,48.371,48.371,0,0,1,8.559-20.434,46.664,46.664,0,0,1,16.35-14.072,45.553,45.553,0,0,1,21.108-5.061c9.409,0,17.226,2.584,23.2,7.679,6.075,5.176,9.547,12.25,10.336,21.054a4.4,4.4,0,0,1-4.387,4.785h-18.884a4.406,4.406,0,0,1-4.211-3.127,7.124,7.124,0,0,0-2.963-4.165,10.828,10.828,0,0,0-6.083-1.531,15.061,15.061,0,0,0-10.749,4.28c-3.2,3.009-5.2,6.99-6.125,12.169a24.215,24.215,0,0,0-.436,4.161c0,3.549.884,6.2,2.706,8.115,1.757,1.853,4.23,2.749,7.557,2.749a14.575,14.575,0,0,0,7.1-1.776,15.778,15.778,0,0,0,5.627-5.221,4.4,4.4,0,0,1,3.648-1.941h18.888a4.406,4.406,0,0,1,4.031,6.171,44.716,44.716,0,0,1-16.805,19.956A45.311,45.311,0,0,1,2028.614,2814.476Z" transform="translate(-17353.984 -15503.381)" fill="#fff"/>
      <path id="Caminho_1435" data-name="Caminho 1435" d="M2238.229,2815.334a36.667,36.667,0,0,1-17.835-4.26,30.5,30.5,0,0,1-12.25-12.181,35.959,35.959,0,0,1-4.264-17.609,49.573,49.573,0,0,1,5.868-24.166,42.806,42.806,0,0,1,16.491-16.821,47.187,47.187,0,0,1,23.734-6.006,37.569,37.569,0,0,1,17.954,4.191,30.217,30.217,0,0,1,12.311,12.085,35.447,35.447,0,0,1,4.276,17.459,50.166,50.166,0,0,1-5.861,24.251,42.91,42.91,0,0,1-16.545,16.985A47.183,47.183,0,0,1,2238.229,2815.334Zm9.543-56.456a15.928,15.928,0,0,0-9.245,2.679,18.249,18.249,0,0,0-6.335,7.369,23.928,23.928,0,0,0-2.316,10.577c0,3.675.907,6.4,2.783,8.345s4.506,2.821,8.18,2.821a15.81,15.81,0,0,0,9.188-2.653,18.223,18.223,0,0,0,6.289-7.449,24.382,24.382,0,0,0,2.331-10.607c0-3.66-.907-6.366-2.768-8.276S2251.394,2758.878,2247.772,2758.878Z" transform="translate(-17483.225 -15503.654)" fill="#fff"/>
      <path id="Caminho_1436" data-name="Caminho 1436" d="M2417.245,2815.271a4.4,4.4,0,0,1-4.333-5.168l12.453-70.516a4.4,4.4,0,0,1,4.337-3.637h17.176a4.406,4.406,0,0,1,4.337,5.168L2442,2793.39h17.226a4.406,4.406,0,0,1,4.333,5.172l-2.3,13.057a4.406,4.406,0,0,1-4.337,3.636Z" transform="translate(-17612.197 -15504.678)" fill="#fff"/>
      <path id="Caminho_1437" data-name="Caminho 1437" d="M2596.146,2815.3a4.4,4.4,0,0,1-4.345-3.7l-1.412-8.755h-19.906l-5.2,10.072a4.4,4.4,0,0,1-3.912,2.385H2543.38a4.4,4.4,0,0,1-3.878-6.489l38-70.516a4.411,4.411,0,0,1,3.878-2.3h19.886a4.4,4.4,0,0,1,4.329,3.6l13.058,70.516a4.4,4.4,0,0,1-4.326,5.206Zm-9.187-34.318-1.221-7.737-3.985,7.737Z" transform="translate(-17690.045 -15504.709)" fill="#fff"/>
      <path id="Caminho_1438" data-name="Caminho 1438" d="M1213.3,1942.624l28.538-162.244h-45.106l-28.764,162.244Z" transform="translate(-16843.865 -14914.904)" fill="#fff"/>
      <path id="Caminho_1439" data-name="Caminho 1439" d="M347.348,1942.624h45.335l28.538-162.244H376.115L360.007,1872.2,316.05,1780.38h-45.1L242.18,1942.624h45.335l16.108-90.671Z" transform="translate(-16272.472 -14914.904)" fill="#fff"/>
      <path id="Caminho_1440" data-name="Caminho 1440" d="M73.764,1780.38,45,1942.624H90.335L118.87,1780.38Z" transform="translate(-16150.773 -14914.904)" fill="#fff"/>
      <path id="Caminho_1441" data-name="Caminho 1441" d="M1972.923,1936.526a74.873,74.873,0,0,0,29.227-23.351q11.966-15.638,15.879-38.663l16.568-94.124H1989.5l-16.579,94.116q-2.3,12.889-9.9,20.021t-20.021,7.135q-10.359,0-15.312-5.064t-4.919-14.267a47.811,47.811,0,0,1,.689-7.824l16.338-94.124h-44.884l-16.572,94.124a83,83,0,0,0-1.608,16.338q0,25.774,15.994,39.582t42.457,13.808A91.452,91.452,0,0,0,1972.923,1936.526Z" transform="translate(-17281.316 -14914.904)" fill="#fff"/>
      <path id="Caminho_1442" data-name="Caminho 1442" d="M1597.61,1965.723l-16.108,91.819-65.888-133.958a88.183,88.183,0,0,0,29.572-34.4q10.473-21.288,10.458-47.984,0-20.017-8.513-35.325a58.746,58.746,0,0,0-24.278-23.7q-15.768-8.395-36.707-8.4-28.079,0-49.822,12.426a86.419,86.419,0,0,0-33.8,34.866q-12.081,22.44-12.081,51.2,0,20.024,8.514,35.44a59.431,59.431,0,0,0,24.162,23.933q15.649,8.514,36.129,8.514a109.184,109.184,0,0,0,15.19-.919l18.019,26.494-28.779,162.224h45.336l16.108-90.671,43.724,90.671h45.336l28.538-162.24Zm-92.007-93.573a45.7,45.7,0,0,1-15.649,18.987,40.741,40.741,0,0,1-23.818,7.132q-14.964,0-23.014-8.4t-8.039-22.9a59.778,59.778,0,0,1,5.524-25.774,45.687,45.687,0,0,1,15.879-18.757,41.608,41.608,0,0,1,23.933-7.021q14.723,0,22.67,8.169t7.939,22.9A61.22,61.22,0,0,1,1505.6,1872.151Z" transform="translate(-16981.174 -14910.824)" fill="#fff"/>
      <path id="Caminho_1443" data-name="Caminho 1443" d="M2394.949,1942.624l6.213-35.9h-58.684l5.294-29.457h51.778l6.213-34.288h-51.778l4.6-26.923h58.684l6.213-35.673H2319.7l-28.768,162.244Z" transform="translate(-17536.953 -14914.904)" fill="#fff"/>
      <path id="Caminho_1444" data-name="Caminho 1444" d="M2182.535,2275.21l-10.818,61.214h-55l10.818-61.214h-45.106l-28.768,162.24H2099l11.507-65.126h54.772l-11.507,65.126H2199.1l28.534-162.24Z" transform="translate(-17390.51 -15220.312)" fill="#fff"/>
      <path id="Caminho_1445" data-name="Caminho 1445" d="M2622.582,2401.551H2563.9l5.294-29.457h51.778l6.213-34.288h-51.778l4.6-26.927h58.684l6.213-35.67h-103.79l-28.764,162.24h104.019Z" transform="translate(-17673.611 -15220.312)" fill="#fff"/>
      <path id="Caminho_1446" data-name="Caminho 1446" d="M1205.886,2410.987l4.142,26.463h47.636l-30.375-162.24h-52.011L1087.6,2437.438h47.406l13.348-26.463ZM1192.538,2324l8.039,52.7h-34.732Z" transform="translate(-16794.262 -15220.311)" fill="#fff"/>
      <path id="Caminho_1447" data-name="Caminho 1447" d="M823.308,2386.063l7.825-43.724H746.916l-5.742,32.45h45.313q-14.037,21.387-37.741,21.387-17.031,0-25.774-7.939t-8.743-23.351a71.991,71.991,0,0,1,1.148-11.507q3.223-18.639,15.075-29.687a40.507,40.507,0,0,1,28.649-11.048q9.436,0,15.649,3.445a19.01,19.01,0,0,1,8.747,9.9h48.555q-.459-25.544-17.835-40.271T766.236,2271a97.122,97.122,0,0,0-44.876,10.47,94.79,94.79,0,0,0-34.07,29.227,101.164,101.164,0,0,0-17.72,42.69,91.381,91.381,0,0,0-1.612,17.49q0,19.328,8.284,34.07a56.916,56.916,0,0,0,23.937,22.9q15.645,8.142,37.289,8.142,29.227,0,51.548-14.73T823.308,2386.063Z" transform="translate(-16535.26 -15217.713)" fill="#fff"/>
      <path id="Caminho_1448" data-name="Caminho 1448" d="M430.67,2324.879a56.219,56.219,0,0,0,.892-10.531q0-18.026-11.335-28.465T389.6,2275.44a60.2,60.2,0,0,0-27.309,6.248,56.828,56.828,0,0,0-20.859,17.85A69.715,69.715,0,0,0,329.3,2338.09q0,18.374,11.511,29.093T371.6,2377.9a57.252,57.252,0,0,0,32.485-9.639,55.354,55.354,0,0,0,20.882-24.809H392.474a19.462,19.462,0,0,1-17.49,9.639q-7.143,0-11.423-4.1t-4.284-11.959a23.043,23.043,0,0,1,.176-3.392h69.073A71.638,71.638,0,0,0,430.67,2324.879Zm-29.985-6.78H362.309q2.68-8.747,8.659-13.479a21.666,21.666,0,0,1,13.831-4.728q7.315,0,11.779,3.828t4.464,10.979a29.382,29.382,0,0,1-.356,3.4Z" transform="translate(-16326.242 -15220.453)" fill="#fff"/>
      <path id="Caminho_1449" data-name="Caminho 1449" d="M378.771,2373.5c-14.661,0-26.662-4.249-35.67-12.633-9.157-8.517-13.781-20.07-13.781-34.337a76.879,76.879,0,0,1,13.494-42.752,64.149,64.149,0,0,1,23.485-20.059,67.579,67.579,0,0,1,30.513-7.005c14.646,0,26.578,4.15,35.467,12.338,9.053,8.341,13.643,19.691,13.643,33.736a63.635,63.635,0,0,1-1.011,11.821,79.34,79.34,0,0,1-2.339,9.57,8.065,8.065,0,0,0-3.82,10.5,62.65,62.65,0,0,1-23.508,27.979A64.639,64.639,0,0,1,378.771,2373.5Zm-4.728-44.263a5.781,5.781,0,0,0,1.654,3.009c.946.911,2.645,2.113,6.466,2.113,4.674,0,8.008-1.589,10.63-5.122Zm26.352-29.859a4.879,4.879,0,0,0-1.313-1.772c-1.642-1.413-3.97-2.1-7.1-2.1a14.548,14.548,0,0,0-9.386,3.185c-.279.218-.547.448-.812.689Z" transform="translate(-16326.254 -15208.893)" fill="#fff"/>
      <path id="Caminho_1450" data-name="Caminho 1450" d="M886.39,2822.9h17.578l-4.119-26.119Z" transform="translate(-16670.076 -15542.223)"/>
      <path id="Caminho_1451" data-name="Caminho 1451" d="M1453.985,2786a20.471,20.471,0,0,0-11.7,3.415,22.76,22.76,0,0,0-7.836,9.092,28.208,28.208,0,0,0-2.76,12.506q0,7.235,4.016,11.4t11.35,4.169a20.232,20.232,0,0,0,11.656-3.415,22.708,22.708,0,0,0,7.782-9.187,28.617,28.617,0,0,0,2.764-12.506q0-7.228-4.02-11.35T1453.985,2786Z" transform="translate(-17006.629 -15535.568)"/>
      <path id="Caminho_1452" data-name="Caminho 1452" d="M2282.585,2787a20.448,20.448,0,0,0-11.7,3.415,22.731,22.731,0,0,0-7.836,9.092,28.208,28.208,0,0,0-2.76,12.506q0,7.235,4.016,11.4t11.35,4.169a20.214,20.214,0,0,0,11.653-3.415,22.688,22.688,0,0,0,7.786-9.187,28.617,28.617,0,0,0,2.764-12.506q0-7.228-4.019-11.35T2282.585,2787Z" transform="translate(-17518.039 -15536.186)"/>
      <path id="Caminho_1453" data-name="Caminho 1453" d="M2631.9,2822.9h17.579l-4.115-26.119Z" transform="translate(-17747.398 -15542.223)"/>
      <path id="Caminho_1454" data-name="Caminho 1454" d="M899.119,1955.186q13.115-10.929,16.8-30.724a50.479,50.479,0,0,0,.922-9.9q0-15.412-9.436-23.7t-26.467-8.284H865.516l-14.956,83.539h15.649Q886,1966.119,899.119,1955.186Z" transform="translate(-16647.961 -14977.981)"/>
      <path id="Caminho_1455" data-name="Caminho 1455" d="M1291.99,2455.357h34.751l-8.054-52.7Z" transform="translate(-16920.41 -15298.973)"/>
      <path id="Caminho_1456" data-name="Caminho 1456" d="M1552.355,1882.58a41.614,41.614,0,0,0-23.933,7.021,45.687,45.687,0,0,0-15.879,18.757,59.764,59.764,0,0,0-5.524,25.774q0,14.5,8.039,22.9t23.014,8.4a40.644,40.644,0,0,0,23.818-7.132,45.76,45.76,0,0,0,15.649-18.987,61.179,61.179,0,0,0,5.409-25.648q0-14.723-7.939-22.9T1552.355,1882.58Z" transform="translate(-17053.127 -14977.981)"/>
      <path id="Caminho_1457" data-name="Caminho 1457" d="M1094.293,1920.723H995.055a17.225,17.225,0,0,0,2.913-7.017l6.148-35.528a17.261,17.261,0,0,0-8.8-18.528,17.2,17.2,0,0,0,7.25-11.166l6.213-34.288a17.225,17.225,0,0,0-2.848-12.965,17.226,17.226,0,0,0,14.374-14.076l6.217-35.67a17.226,17.226,0,0,0-16.973-20.185h-103.8a17.225,17.225,0,0,0-14.729,8.3,16.985,16.985,0,0,0-1.532-2.146,17.226,17.226,0,0,0-13.2-6.152h-45.1c-8.364,0-16.078,8.992-17.544,17.226H798.711a17.226,17.226,0,0,0-17.226-17.226H736.6a17.226,17.226,0,0,0-16.966,14.241l-7.771,44.133a82.033,82.033,0,0,0-7.844-19.944,76.074,76.074,0,0,0-31.229-30.532c-12.989-6.921-28.063-10.428-44.811-10.428-21.667,0-41.3,4.946-58.37,14.7a103.426,103.426,0,0,0-36.366,34.678l4.62-26.256a17.253,17.253,0,0,0-16.9-20.587h-45.1a17.226,17.226,0,0,0-16.962,14.221l-7.2,40.577a75.833,75.833,0,0,0-7.009-15.925c-7.4-12.606-18.229-22.432-32.178-29.212-13.211-6.42-28.752-9.673-46.189-9.673H302.123a17.225,17.225,0,0,0-15.185,9.1,17.226,17.226,0,0,0-15.191-9.1H226.642a17.226,17.226,0,0,0-16.966,14.25l-6.822,38.868-20.74-43.3a17.226,17.226,0,0,0-15.534-9.788H121.474a17.228,17.228,0,0,0-15.191,9.1,17.226,17.226,0,0,0-15.177-9.117H45.993a17.226,17.226,0,0,0-16.962,14.221L.263,1907.762A17.226,17.226,0,0,0,17.225,1928H62.56a17.227,17.227,0,0,0,15.076-8.887,17.184,17.184,0,0,0,15.07,8.9h75.282a72.465,72.465,0,0,0-8.165,3.468,71.343,71.343,0,0,0-26.088,22.271,84.065,84.065,0,0,0-14.853,46.951,58.9,58.9,0,0,0,3.882,21.74,48.666,48.666,0,0,0,12.2,17.846c10.378,9.654,24.021,14.547,40.55,14.547a71.611,71.611,0,0,0,40.432-12.043,69.836,69.836,0,0,0,24.5-27.627c-.027.153-.057.306-.084.463a109.279,109.279,0,0,0-1.914,20.6c0,15.821,3.533,30.123,10.5,42.491a74.195,74.195,0,0,0,30.977,29.725c12.862,6.718,28.086,10.125,45.247,10.125q5.742,0,11.293-.505l-36.079,66.991a8.8,8.8,0,0,0,7.771,12.992h17.992a8.8,8.8,0,0,0,7.825-4.767l3.969-7.69h13.471l.815,5.053a8.8,8.8,0,0,0,8.693,7.4h18.168a8.8,8.8,0,0,0,8.659-10.408l-.44-2.374a26.516,26.516,0,0,0,5.045,5.681c6.125,5.179,14.041,7.805,23.508,7.805a47.679,47.679,0,0,0,19.378-3.966,40.345,40.345,0,0,0,15.771-12.472l19.067-.326-1.011,5.723a8.8,8.8,0,0,0,8.671,10.335h17.18a8.8,8.8,0,0,0,8.671-7.273l1.661-9.432,21.636-1.3a34.836,34.836,0,0,0,13.972,13.911,41.008,41.008,0,0,0,19.952,4.8,51.674,51.674,0,0,0,26.08-6.646,47.253,47.253,0,0,0,18.221-18.7c4.242-7.809,6.029-9.953,6.029-19.626l28.4.2-6.266,33.729a8.8,8.8,0,0,0,8.671,10.335h43.192a8.8,8.8,0,0,0,8.667-7.273l1.34-7.522a25.117,25.117,0,0,0,8.066,8.954c6.266,4.337,14.221,6.538,23.646,6.538a44.513,44.513,0,0,0,18.137-3.522,30.551,30.551,0,0,0,13.272-10.814,27.752,27.752,0,0,0,3.663-7.79,34.18,34.18,0,0,0,1.914,3.973,33.444,33.444,0,0,0,13.942,13.433,42.436,42.436,0,0,0,19.848,4.517,49.594,49.594,0,0,0,27.493-8,48.58,48.58,0,0,0,16.013-17.039,37.437,37.437,0,0,0,2.944,6.891,34.88,34.88,0,0,0,13.972,13.911,40.994,40.994,0,0,0,19.952,4.8,51.671,51.671,0,0,0,26.08-6.646,47.161,47.161,0,0,0,17.54-17.494l-2.247,12.717a8.8,8.8,0,0,0,8.67,10.336h39.678a8.773,8.773,0,0,1,8.64,0h17.992a8.8,8.8,0,0,0,7.825-4.767l3.966-7.69h13.459l.815,5.053a8.8,8.8,0,0,0,8.69,7.4H1047.3a8.8,8.8,0,0,0,8.655-10.408l-13.015-70.222h22.823a17.226,17.226,0,0,0,16.973-14.289l6.213-35.9a17.226,17.226,0,0,0-8.9-18.148,17.226,17.226,0,0,0,7.273-11.174l6.213-34.288a17.226,17.226,0,0,0-2.848-12.966,17.226,17.226,0,0,0,14.374-14.076l6.148-35.3a17.226,17.226,0,0,0-16.9-20.553ZM62.56,1910.77H17.225l28.768-162.244H91.106Zm843.183-162.244h103.786l-6.2,35.673H944.644l-4.594,26.923h51.778l-6.213,34.292h-51.8l-5.294,29.453h58.684L981,1910.77H876.976ZM720.03,1842.65l16.572-94.124h44.872l-16.338,94.124a47.821,47.821,0,0,0-.689,7.824q0,9.188,4.946,14.267t15.312,5.064q12.426,0,20.021-7.135t9.9-20.021l16.572-94.124h45.1l-16.568,94.124q-3.916,23.014-15.879,38.663a74.7,74.7,0,0,1-29.227,23.351,91.44,91.44,0,0,1-37.741,7.706q-26.467,0-42.457-13.808t-15.994-39.582a83,83,0,0,1,1.6-16.33Zm-244.164-94.124h45.106L492.438,1910.77H447.114Zm-173.743,0h64.219q22.314,0,38.663,7.939t24.855,22.44q8.51,14.5,8.514,33.828a85.579,85.579,0,0,1-1.612,16.8,97.555,97.555,0,0,1-17.835,41.886,95.708,95.708,0,0,1-34.747,28.879q-21.054,10.473-46.6,10.474H273.359ZM138.042,1910.77H92.706l28.768-162.244H166.58l43.961,91.823,16.108-91.823h45.1L243.209,1910.77H197.874L154.15,1820.1Zm96.551,76.706a71.643,71.643,0,0,1-2.144,8.747H163.376a23.039,23.039,0,0,0-.176,3.392q0,7.855,4.284,11.959t11.423,4.1a19.468,19.468,0,0,0,17.49-9.639h32.485A55.3,55.3,0,0,1,208,2030.848a57.331,57.331,0,0,1-32.485,9.639q-19.278,0-30.789-10.719t-11.511-29.093a69.714,69.714,0,0,1,12.135-38.552,56.827,56.827,0,0,1,20.882-17.85,60.2,60.2,0,0,1,27.309-6.247q19.274,0,30.624,10.443t11.335,28.465a56.22,56.22,0,0,1-.907,10.542Zm126.325,201.765-2.01-12.457H332.583l-6.435,12.457H308.156l37.97-70.516h19.906l13.057,70.516Zm15.844-102.63q-22.325,14.715-51.556,14.715-21.628,0-37.277-8.169a57.038,57.038,0,0,1-23.937-22.9q-8.28-14.722-8.284-34.069a91.383,91.383,0,0,1,1.612-17.49,101.019,101.019,0,0,1,17.72-42.664,94.79,94.79,0,0,1,34.07-29.227,97.13,97.13,0,0,1,44.865-10.47q30.605,0,47.981,14.73t17.835,40.271H371.234a19.01,19.01,0,0,0-8.747-9.9Q356.274,1978,346.838,1978a40.5,40.5,0,0,0-28.649,11.048q-11.848,11.048-15.075,29.687a71.98,71.98,0,0,0-1.148,11.507q0,15.419,8.743,23.351t25.774,7.924q23.7,0,37.741-21.4H328.889l5.742-32.45h84.217l-7.824,43.724q-11.943,20.5-34.269,35.222Zm74.065,74.2a36.5,36.5,0,0,1-6.779,16.12,31.529,31.529,0,0,1-12.357,9.8,38.74,38.74,0,0,1-15.821,3.215q-11.052,0-17.831-5.742t-6.779-16.576a41.571,41.571,0,0,1,.6-6.829l7.331-42.108h17.176l-7.43,42.108a27.878,27.878,0,0,0-.406,3.614q0,4.62,2.615,7.082t7.733,2.461a14.209,14.209,0,0,0,9.846-3.415q3.817-3.415,4.923-9.742l7.434-42.108h17.176Zm72.928-28.53H504.971l-10.045,56.958H477.738l10.045-56.958H469.1l2.412-13.559h54.542ZM477.1,2073.715l-13.356,26.463H416.336L504,1937.938H556.01l30.391,162.24H538.765l-4.142-26.463Zm120.285,95.475a38.4,38.4,0,0,1-14.868,15.266,42.8,42.8,0,0,1-21.7,5.478,32.173,32.173,0,0,1-15.718-3.717,26.027,26.027,0,0,1-10.5-10.447,31.5,31.5,0,0,1-3.713-15.473,45.066,45.066,0,0,1,5.321-22.046,38.326,38.326,0,0,1,14.818-15.121,42.691,42.691,0,0,1,21.548-5.424,33.057,33.057,0,0,1,15.871,3.667,25.786,25.786,0,0,1,10.546,10.336,31.028,31.028,0,0,1,3.717,15.312,45.745,45.745,0,0,1-5.332,22.18Zm97.806-36.918H669.159l-2.511,14.665h23l-2.3,12.962h-23l-2.814,15.768h26.031l-2.412,13.563h-43.2l12.453-70.516h43.2ZM757.5,2138.8H739.193a5.211,5.211,0,0,0,.1-1.206,5.857,5.857,0,0,0-1.96-4.571,7.736,7.736,0,0,0-5.359-1.757,9.3,9.3,0,0,0-5.876,1.757,5.72,5.72,0,0,0-2.259,4.77,6.115,6.115,0,0,0,2.81,5.076,52.536,52.536,0,0,0,8.739,4.77,92.859,92.859,0,0,1,9.693,5.022,21.882,21.882,0,0,1,6.481,6.179,16.157,16.157,0,0,1,2.714,9.493,19.488,19.488,0,0,1-3.315,11.147,21.8,21.8,0,0,1-9.543,7.687,35.663,35.663,0,0,1-14.547,2.764q-11.457,0-18.635-4.977t-7.181-14.114a26.788,26.788,0,0,1,.2-2.714h17.881a7.459,7.459,0,0,0,1.811,6.029q2.109,2.2,6.427,2.209a10.035,10.035,0,0,0,6.178-1.707,5.68,5.68,0,0,0,2.259-4.823,6.124,6.124,0,0,0-2.863-5.222,49.357,49.357,0,0,0-8.889-4.521,77.685,77.685,0,0,1-9.494-4.571,21.179,21.179,0,0,1-6.378-5.876,15.447,15.447,0,0,1-2.714-9.34,20.257,20.257,0,0,1,3.418-12.054,22.317,22.317,0,0,1,9.742-7.836A35.312,35.312,0,0,1,732.9,2117.7a34.238,34.238,0,0,1,12.858,2.262,19.523,19.523,0,0,1,8.739,6.527,16.686,16.686,0,0,1,3.112,10.1,16.981,16.981,0,0,1-.119,2.224Zm-1.489-38.625H710.667l-43.724-90.671-16.108,90.671H605.5l28.764-162.236-18.019-26.486a109.146,109.146,0,0,1-15.19.919q-20.484,0-36.129-8.513a59.431,59.431,0,0,1-24.163-23.933q-8.517-15.419-8.514-35.44,0-28.76,12.081-51.2a86.533,86.533,0,0,1,33.828-34.866q21.747-12.426,49.822-12.426,20.939,0,36.707,8.4a58.745,58.745,0,0,1,24.277,23.7q8.51,15.312,8.514,35.325,0,26.7-10.47,47.984a88.18,88.18,0,0,1-29.572,34.4l65.888,133.958,16.108-91.819H784.54Zm33.488,69.766q3.92,4.115,10.749,4.115a18.989,18.989,0,0,0,9.187-2.3,20.2,20.2,0,0,0,7.181-6.63H835.5a40.219,40.219,0,0,1-15.17,18.03,40.827,40.827,0,0,1-22.7,6.581,33.63,33.63,0,0,1-15.772-3.514,24.708,24.708,0,0,1-10.336-9.953,30.1,30.1,0,0,1-3.614-14.968,39.013,39.013,0,0,1,.7-7.434,43.822,43.822,0,0,1,7.786-18.635,42.064,42.064,0,0,1,14.818-12.755,40.935,40.935,0,0,1,19.083-4.571q12.556,0,20.342,6.63t8.8,18.08H820.562a11.558,11.558,0,0,0-4.774-6.58,15.168,15.168,0,0,0-8.487-2.259,19.439,19.439,0,0,0-13.781,5.474q-5.826,5.478-7.434,14.615a28.253,28.253,0,0,0-.5,4.923q-.012,7.043,3.9,11.159Zm125.077-.383a38.4,38.4,0,0,1-14.868,15.266,42.793,42.793,0,0,1-21.7,5.478,32.181,32.181,0,0,1-15.722-3.717,26.068,26.068,0,0,1-10.5-10.447,31.528,31.528,0,0,1-3.717-15.473,45.04,45.04,0,0,1,5.325-22.046,38.326,38.326,0,0,1,14.8-15.094,42.688,42.688,0,0,1,21.544-5.424,33.03,33.03,0,0,1,15.871,3.667,25.771,25.771,0,0,1,10.55,10.336,30.97,30.97,0,0,1,3.717,15.312,45.786,45.786,0,0,1-5.313,22.164Zm-28.327-69.395,11.507-65.126H842.99l-11.507,65.138H786.148l28.768-162.24h45.106L849.2,1999.152h55l10.818-61.214h45.1l-28.534,162.24Zm82.134,85.377a8.8,8.8,0,0,0-.819,3.713H928.046L940.5,2118.74h17.176L947.534,2176.2h22.49Zm78.9,3.713H1029.1l-2.01-12.457h-26.318l-6.427,12.457H976.666l.149-.838,37.515-69.67h19.887Zm40.8-215.622h-58.684l-4.594,26.926h51.778l-6.213,34.288h-51.786l-5.3,29.441h58.684l-6.209,35.888H961.736l28.768-162.24H1094.29Z" transform="translate(-16122.998 -14883.051)"/>
      <path id="Caminho_1458" data-name="Caminho 1458" d="M468.519,2343.165q-4.46-3.828-11.779-3.828a21.666,21.666,0,0,0-13.831,4.728q-5.983,4.731-8.659,13.478h38.376a29.381,29.381,0,0,0,.356-3.392Q472.982,2347.008,468.519,2343.165Z" transform="translate(-16391.018 -15259.889)"/>
    </g>
  </g>
</svg>
