<svg xmlns="http://www.w3.org/2000/svg" xmlns:xlink="http://www.w3.org/1999/xlink" width="1135" height="507" viewBox="0 0 1135 507">
  <defs>
    <clipPath id="clip-Indique_Ganhe_verde">
      <rect width="1135" height="507"/>
    </clipPath>
  </defs>
  <g id="Indique_Ganhe_verde" data-name="Indique Ganhe/ verde" clip-path="url(#clip-Indique_Ganhe_verde)">
    <g id="Grupo_375" data-name="Grupo 375" transform="translate(-100 -60)">
      <g id="Grupo_374" data-name="Grupo 374">
        <path id="Caminho_1393" data-name="Caminho 1393" d="M778.3,213.85q25.544,0,46.6-10.47A95.7,95.7,0,0,0,859.654,174.5a97.562,97.562,0,0,0,17.835-41.883,85.611,85.611,0,0,0,1.612-16.8q0-19.335-8.514-33.828t-24.84-22.44Q829.4,51.614,807.083,51.61H742.864L714.1,213.85Zm2.99-123.117h15.419q17.031,0,26.467,8.284t9.436,23.7a50.483,50.483,0,0,1-.922,9.9q-3.686,19.8-16.8,30.724t-32.921,10.929H766.337Z" transform="translate(-325.738 46.086)" fill="#5eb132"/>
        <path id="Caminho_1394" data-name="Caminho 1394" d="M430.67,596.109a56.221,56.221,0,0,0,.892-10.531q0-18.026-11.335-28.465T389.6,546.67a60.2,60.2,0,0,0-27.309,6.247,56.85,56.85,0,0,0-20.859,17.846A69.714,69.714,0,0,0,329.3,609.316q0,18.375,11.511,29.093T371.6,649.127a57.254,57.254,0,0,0,32.485-9.639,55.355,55.355,0,0,0,20.882-24.81H392.474a19.452,19.452,0,0,1-17.49,9.639q-7.143,0-11.423-4.1t-4.284-11.959a23.007,23.007,0,0,1,.176-3.392h69.073A71.647,71.647,0,0,0,430.67,596.109Zm-29.985-6.783H362.309q2.68-8.739,8.659-13.475a21.666,21.666,0,0,1,13.831-4.728q7.315,0,11.779,3.828t4.463,10.979A29.327,29.327,0,0,1,400.685,589.326Z" transform="translate(-88.242 -259.463)" fill="#fff"/>
        <path id="Caminho_1395" data-name="Caminho 1395" d="M850.648,1086.5a4.4,4.4,0,0,1-4.345-3.7l-1.413-8.755H825l-5.2,10.072a4.4,4.4,0,0,1-3.912,2.385h-18a4.406,4.406,0,0,1-3.874-6.508l37.97-70.516a4.4,4.4,0,0,1,3.874-2.3H855.77a4.4,4.4,0,0,1,4.33,3.6l13.057,70.516a4.4,4.4,0,0,1-4.33,5.206Zm-9.168-34.322-1.221-7.733-3.989,7.733Z" transform="translate(-374.736 -543.688)" fill="#fff"/>
        <path id="Caminho_1396" data-name="Caminho 1396" d="M1039.583,1087.2c-8.4,0-15.354-2.274-20.671-6.764-5.535-4.674-8.341-11.381-8.341-19.936a46.155,46.155,0,0,1,.662-7.553l7.338-42.109a4.4,4.4,0,0,1,4.337-3.644h17.176a4.4,4.4,0,0,1,4.337,5.168l-7.426,42.039a24.251,24.251,0,0,0-.344,2.9c0,2.722.926,3.591,1.229,3.878,1.11,1.045,3.177,1.263,4.716,1.263a9.871,9.871,0,0,0,6.891-2.3c1.8-1.612,2.955-3.974,3.522-7.224l7.434-42.108a4.4,4.4,0,0,1,4.337-3.633h17.176a4.395,4.395,0,0,1,4.333,5.168l-7.415,42.085a40.96,40.96,0,0,1-7.629,18.045,35.982,35.982,0,0,1-14.064,11.136A43.253,43.253,0,0,1,1039.583,1087.2Z" transform="translate(-508.719 -543.688)" fill="#fff"/>
        <path id="Caminho_1397" data-name="Caminho 1397" d="M1226.974,1086.5a4.4,4.4,0,0,1-4.333-5.168l9.134-51.79h-13.436a4.4,4.4,0,0,1-4.337-5.172l2.412-13.563a4.4,4.4,0,0,1,4.337-3.629h54.542a4.4,4.4,0,0,1,4.341,5.141l-2.3,13.559a4.4,4.4,0,0,1-4.337,3.663h-15.09l-9.406,53.317a4.4,4.4,0,0,1-4.333,3.64Z" transform="translate(-634.234 -543.688)" fill="#fff"/>
        <path id="Caminho_1398" data-name="Caminho 1398" d="M1409.619,1085.56a36.662,36.662,0,0,1-17.835-4.257,30.49,30.49,0,0,1-12.25-12.181,35.917,35.917,0,0,1-4.264-17.609,49.571,49.571,0,0,1,5.865-24.166,42.832,42.832,0,0,1,16.491-16.82,47.2,47.2,0,0,1,23.734-6.006,37.3,37.3,0,0,1,17.95,4.211,30.164,30.164,0,0,1,12.315,12.081,35.506,35.506,0,0,1,4.272,17.46,50.168,50.168,0,0,1-5.861,24.255,42.874,42.874,0,0,1-16.541,16.985A47.317,47.317,0,0,1,1409.619,1085.56Zm9.543-56.452a15.929,15.929,0,0,0-9.245,2.68,18.264,18.264,0,0,0-6.335,7.365,23.938,23.938,0,0,0-2.3,10.581c0,3.671.911,6.4,2.783,8.345s4.506,2.821,8.18,2.821a15.839,15.839,0,0,0,9.187-2.653,18.222,18.222,0,0,0,6.289-7.449,24.4,24.4,0,0,0,2.331-10.607c0-3.66-.907-6.366-2.768-8.276s-4.506-2.806-8.123-2.806Z" transform="translate(-733.811 -542.046)" fill="#fff"/>
        <path id="Caminho_1399" data-name="Caminho 1399" d="M1669.9,1086.5a4.4,4.4,0,0,1-4.337-5.168l12.456-70.52a4.4,4.4,0,0,1,4.333-3.633h43.2a4.4,4.4,0,0,1,4.333,5.172l-2.412,13.559a4.4,4.4,0,0,1-4.333,3.633h-22.3l-1.007,5.861h17.785a4.4,4.4,0,0,1,4.333,5.175l-2.3,12.958a4.4,4.4,0,0,1-4.337,3.629h-19.343l-1.24,6.967h20.759a4.406,4.406,0,0,1,4.333,5.172l-2.412,13.563a4.4,4.4,0,0,1-4.333,3.633Z" transform="translate(-912.936 -543.688)" fill="#fff"/>
        <path id="Caminho_1400" data-name="Caminho 1400" d="M1850.049,1085.621c-8.513,0-15.626-1.914-21.142-5.742a20.66,20.66,0,0,1-9.076-17.731,30.207,30.207,0,0,1,.226-3.2,4.406,4.406,0,0,1,4.376-3.912h17.881a4.406,4.406,0,0,1,4.391,4.751c-.149,1.853.417,2.442.6,2.637.7.739,2.335.85,3.246.85a6.048,6.048,0,0,0,3.522-.815c.23-.176.513-.383.513-1.313,0-.486-.077-.976-.991-1.619a45.94,45.94,0,0,0-8.039-4.062,81.768,81.768,0,0,1-10.037-4.839,25.615,25.615,0,0,1-7.7-7.078,19.783,19.783,0,0,1-3.56-11.9,24.515,24.515,0,0,1,4.211-14.581,26.728,26.728,0,0,1,11.614-9.379,39.964,39.964,0,0,1,16.02-3.062,38.891,38.891,0,0,1,14.5,2.576,23.835,23.835,0,0,1,10.653,8.039,21.08,21.08,0,0,1,3.958,12.69,20.724,20.724,0,0,1-.142,2.829,4.4,4.4,0,0,1-4.36,3.786h-18.329a4.406,4.406,0,0,1-4.307-5.306v-.3a1.481,1.481,0,0,0-.5-1.3,3.683,3.683,0,0,0-2.435-.628,5.131,5.131,0,0,0-3.173.831,1.348,1.348,0,0,0-.559,1.294c0,.295,0,.766,1.007,1.531a48.889,48.889,0,0,0,7.974,4.322,97.32,97.32,0,0,1,10.164,5.275,26.327,26.327,0,0,1,7.782,7.4,20.519,20.519,0,0,1,3.51,12.024,23.91,23.91,0,0,1-4.069,13.609,26.3,26.3,0,0,1-11.407,9.248A40.976,40.976,0,0,1,1850.049,1085.621Z" transform="translate(-1008.191 -542.108)" fill="#fff"/>
        <path id="Caminho_1401" data-name="Caminho 1401" d="M2028.614,1085.705a38.1,38.1,0,0,1-17.812-4.016A29.134,29.134,0,0,1,1998.66,1070a34.463,34.463,0,0,1-4.18-17.123,43.512,43.512,0,0,1,.766-8.23,48.371,48.371,0,0,1,8.559-20.434,46.625,46.625,0,0,1,16.35-14.072,45.554,45.554,0,0,1,21.108-5.061c9.409,0,17.226,2.584,23.2,7.679,6.075,5.175,9.547,12.25,10.336,21.054a4.4,4.4,0,0,1-4.387,4.789h-18.884a4.406,4.406,0,0,1-4.211-3.128,7.145,7.145,0,0,0-2.963-4.169,10.858,10.858,0,0,0-6.083-1.531,15.044,15.044,0,0,0-10.749,4.28c-3.2,3.009-5.2,6.99-6.125,12.169a24.129,24.129,0,0,0-.436,4.161c0,3.545.884,6.2,2.706,8.115,1.757,1.849,4.23,2.749,7.557,2.749a14.546,14.546,0,0,0,7.1-1.78,15.729,15.729,0,0,0,5.627-5.218,4.4,4.4,0,0,1,3.648-1.941h18.888a4.406,4.406,0,0,1,4.031,6.171,44.616,44.616,0,0,1-16.805,19.956A45.312,45.312,0,0,1,2028.614,1085.705Z" transform="translate(-1115.984 -542.391)" fill="#fff"/>
        <path id="Caminho_1402" data-name="Caminho 1402" d="M2238.229,1086.56a36.664,36.664,0,0,1-17.835-4.257,30.5,30.5,0,0,1-12.25-12.181,35.969,35.969,0,0,1-4.264-17.609,49.573,49.573,0,0,1,5.868-24.166,42.806,42.806,0,0,1,16.491-16.82,47.186,47.186,0,0,1,23.734-6.006,37.311,37.311,0,0,1,17.954,4.211,30.18,30.18,0,0,1,12.311,12.081,35.467,35.467,0,0,1,4.276,17.46,50.17,50.17,0,0,1-5.861,24.254,42.91,42.91,0,0,1-16.541,16.977A47.311,47.311,0,0,1,2238.229,1086.56Zm9.543-56.452a15.929,15.929,0,0,0-9.245,2.68,18.265,18.265,0,0,0-6.335,7.365,23.942,23.942,0,0,0-2.316,10.581c0,3.671.907,6.4,2.783,8.345s4.506,2.821,8.18,2.821a15.838,15.838,0,0,0,9.188-2.653,18.224,18.224,0,0,0,6.289-7.449,24.39,24.39,0,0,0,2.331-10.608c0-3.66-.907-6.366-2.768-8.276S2251.394,1030.108,2247.772,1030.108Z" transform="translate(-1245.225 -542.664)" fill="#fff"/>
        <path id="Caminho_1403" data-name="Caminho 1403" d="M2417.245,1086.5a4.4,4.4,0,0,1-4.333-5.168l12.453-70.52a4.4,4.4,0,0,1,4.337-3.633h17.177a4.4,4.4,0,0,1,4.337,5.164L2442,1064.635h17.226a4.4,4.4,0,0,1,4.333,5.172l-2.3,13.057a4.41,4.41,0,0,1-4.337,3.637Z" transform="translate(-1374.197 -543.688)" fill="#fff"/>
        <path id="Caminho_1404" data-name="Caminho 1404" d="M2596.133,1086.5a4.4,4.4,0,0,1-4.345-3.7l-1.413-8.755H2570.47l-5.2,10.072a4.41,4.41,0,0,1-3.912,2.385h-17.992a4.406,4.406,0,0,1-3.878-6.508l37.97-70.516a4.41,4.41,0,0,1,3.878-2.3h19.887a4.4,4.4,0,0,1,4.33,3.6l13.058,70.516a4.4,4.4,0,0,1-4.326,5.206Zm-9.187-34.322-1.221-7.733-3.985,7.733Z" transform="translate(-1452.033 -543.688)" fill="#fff"/>
        <path id="Caminho_1405" data-name="Caminho 1405" d="M1213.3,213.85,1241.84,51.61h-45.106L1167.97,213.85Z" transform="translate(-605.865 46.086)" fill="#5eb132"/>
        <path id="Caminho_1406" data-name="Caminho 1406" d="M347.348,213.85h45.335L421.221,51.61H376.115l-16.108,91.823L316.05,51.61h-45.1L242.18,213.85h45.335l16.108-90.671Z" transform="translate(-34.472 46.086)" fill="#5eb132"/>
        <path id="Caminho_1407" data-name="Caminho 1407" d="M73.764,51.61,45,213.85H90.335L118.87,51.61Z" transform="translate(87.227 46.086)" fill="#5eb132"/>
        <path id="Caminho_1408" data-name="Caminho 1408" d="M1972.923,207.752A74.782,74.782,0,0,0,2002.15,184.4q11.966-15.645,15.879-38.663L2034.6,51.614H1989.5l-16.579,94.12q-2.3,12.889-9.9,20.021t-20.021,7.135q-10.359,0-15.312-5.064t-4.919-14.267a47.772,47.772,0,0,1,.689-7.825L1939.8,51.61h-44.884l-16.572,94.124a82.963,82.963,0,0,0-1.608,16.338q0,25.774,15.994,39.582t42.457,13.808A91.413,91.413,0,0,0,1972.923,207.752Z" transform="translate(-1043.316 46.086)" fill="#5eb132"/>
        <path id="Caminho_1409" data-name="Caminho 1409" d="M1597.61,236.953,1581.5,328.773l-65.888-133.958a88.249,88.249,0,0,0,29.572-34.406q10.473-21.284,10.458-47.981,0-20.021-8.513-35.325a58.776,58.776,0,0,0-24.278-23.7q-15.756-8.4-36.7-8.4-28.079,0-49.822,12.426a86.5,86.5,0,0,0-33.813,34.866q-12.081,22.436-12.081,51.2,0,20.024,8.514,35.44a59.452,59.452,0,0,0,24.162,23.933q15.649,8.517,36.129,8.514a109.773,109.773,0,0,0,15.19-.919l18.019,26.494-28.764,162.236h45.335l16.108-90.671,43.724,90.671h45.335l28.538-162.24ZM1505.6,143.381a45.675,45.675,0,0,1-15.649,18.983,40.8,40.8,0,0,1-23.818,7.135q-14.964,0-23.014-8.4t-8.039-22.9a59.778,59.778,0,0,1,5.524-25.774,45.688,45.688,0,0,1,15.879-18.757,41.607,41.607,0,0,1,23.933-7.021q14.723,0,22.67,8.169t7.924,22.915A61.1,61.1,0,0,1,1505.6,143.381Z" transform="translate(-743.174 50.166)" fill="#5eb132"/>
        <path id="Caminho_1410" data-name="Caminho 1410" d="M2394.949,213.85l6.213-35.9h-58.684l5.294-29.457h51.778l6.213-34.288h-51.778l4.6-26.926h58.684l6.213-35.67H2319.7L2290.93,213.85Z" transform="translate(-1298.953 46.086)" fill="#5eb132"/>
        <path id="Caminho_1411" data-name="Caminho 1411" d="M2182.535,546.44l-10.818,61.214h-55l10.818-61.214h-45.106L2053.66,708.68H2099l11.507-65.126h54.772l-11.507,65.126H2199.1l28.534-162.24Z" transform="translate(-1152.51 -259.321)" fill="#fff"/>
        <path id="Caminho_1412" data-name="Caminho 1412" d="M2622.582,672.781H2563.9l5.294-29.457h51.778l6.213-34.292h-51.778l4.6-26.923h58.684l6.213-35.67h-103.79L2512.35,708.68h104.019Z" transform="translate(-1435.611 -259.321)" fill="#fff"/>
        <path id="Caminho_1413" data-name="Caminho 1413" d="M1205.911,682.213l4.142,26.467h47.636l-30.375-162.24H1175.3L1087.64,708.68h47.406l13.348-26.467Zm-13.348-86.988,8.039,52.7H1165.87Z" transform="translate(-556.287 -259.321)" fill="#fff"/>
        <path id="Caminho_1414" data-name="Caminho 1414" d="M823.332,657.293l7.825-43.724H746.94L741.2,646.016H786.51q-14.037,21.406-37.741,21.4-17.031,0-25.774-7.939t-8.743-23.351a71.991,71.991,0,0,1,1.148-11.484q3.223-18.646,15.075-29.686a40.71,40.71,0,0,1,28.649-11.09q9.436,0,15.649,3.445a19.01,19.01,0,0,1,8.747,9.9h48.555q-.459-25.548-17.835-40.275t-47.981-14.7a97.124,97.124,0,0,0-44.876,10.47,94.752,94.752,0,0,0-34.07,29.227,101.163,101.163,0,0,0-17.72,42.69A91.353,91.353,0,0,0,668,642.1q0,19.335,8.284,34.07a56.955,56.955,0,0,0,23.937,22.9q15.649,8.173,37.277,8.169,29.227,0,51.548-14.726T823.332,657.293Z" transform="translate(-297.285 -256.723)" fill="#fff"/>
        <path id="Caminho_1415" data-name="Caminho 1415" d="M430.67,596.109a56.221,56.221,0,0,0,.892-10.531q0-18.026-11.335-28.465T389.6,546.67a60.2,60.2,0,0,0-27.309,6.247,56.85,56.85,0,0,0-20.859,17.846A69.714,69.714,0,0,0,329.3,609.316q0,18.375,11.511,29.093T371.6,649.127a57.254,57.254,0,0,0,32.485-9.639,55.355,55.355,0,0,0,20.882-24.81H392.474a19.452,19.452,0,0,1-17.49,9.639q-7.143,0-11.423-4.1t-4.284-11.959a23.007,23.007,0,0,1,.176-3.392h69.073A71.647,71.647,0,0,0,430.67,596.109Zm-29.985-6.783H362.309q2.68-8.739,8.659-13.475a21.666,21.666,0,0,1,13.831-4.728q7.315,0,11.779,3.828t4.463,10.979A29.327,29.327,0,0,1,400.685,589.326Z" transform="translate(-88.242 -259.463)" fill="#fff"/>
        <path id="Caminho_1416" data-name="Caminho 1416" d="M378.771,644.755c-14.661,0-26.662-4.249-35.67-12.633-9.157-8.517-13.781-20.07-13.781-34.341a76.9,76.9,0,0,1,13.494-42.752A64.174,64.174,0,0,1,366.3,534.975,67.569,67.569,0,0,1,396.8,528c14.646,0,26.578,4.15,35.467,12.338,9.053,8.341,13.643,19.691,13.643,33.737A63.664,63.664,0,0,1,444.9,585.9a79.505,79.505,0,0,1-2.339,9.57,7.162,7.162,0,0,1-4.023,4.479,7.174,7.174,0,0,1,.2,6.025,62.649,62.649,0,0,1-23.508,27.979A64.563,64.563,0,0,1,378.771,644.755ZM374.043,600.5a5.779,5.779,0,0,0,1.654,3.009c.946.907,2.645,2.113,6.466,2.113,4.674,0,8.008-1.592,10.63-5.122ZM400.4,570.641a4.862,4.862,0,0,0-1.313-1.769c-1.642-1.412-3.97-2.1-7.1-2.1a14.547,14.547,0,0,0-9.386,3.185c-.279.218-.547.448-.812.685Z" transform="translate(-88.254 -247.94)" fill="#fff"/>
        <path id="Caminho_1417" data-name="Caminho 1417" d="M886.39,1094.125h17.578l-4.119-26.115Z" transform="translate(-432.076 -581.232)"/>
        <path id="Caminho_1418" data-name="Caminho 1418" d="M1453.985,1057.25a20.471,20.471,0,0,0-11.7,3.415,22.759,22.759,0,0,0-7.836,9.092,28.2,28.2,0,0,0-2.76,12.506q0,7.231,4.016,11.4t11.35,4.169a20.232,20.232,0,0,0,11.656-3.415,22.709,22.709,0,0,0,7.782-9.187,28.618,28.618,0,0,0,2.764-12.506q0-7.235-4.019-11.35T1453.985,1057.25Z" transform="translate(-768.629 -574.591)"/>
        <path id="Caminho_1419" data-name="Caminho 1419" d="M2282.585,1058.25a20.448,20.448,0,0,0-11.7,3.415,22.73,22.73,0,0,0-7.836,9.092,28.2,28.2,0,0,0-2.76,12.506q0,7.231,4.016,11.4t11.35,4.169a20.214,20.214,0,0,0,11.653-3.415,22.688,22.688,0,0,0,7.786-9.187,28.619,28.619,0,0,0,2.764-12.506q0-7.235-4.019-11.35T2282.585,1058.25Z" transform="translate(-1280.039 -575.208)"/>
        <path id="Caminho_1420" data-name="Caminho 1420" d="M2631.9,1094.125h17.579l-4.115-26.115Z" transform="translate(-1509.398 -581.232)"/>
        <path id="Caminho_1421" data-name="Caminho 1421" d="M899.119,226.416q13.115-10.929,16.8-30.724a50.483,50.483,0,0,0,.922-9.9q0-15.412-9.436-23.7t-26.467-8.284H865.516L850.56,237.334h15.649Q886,237.334,899.119,226.416Z" transform="translate(-409.961 -16.991)"/>
        <path id="Caminho_1422" data-name="Caminho 1422" d="M1291.99,726.581h34.751l-8.054-52.7Z" transform="translate(-682.41 -337.977)"/>
        <path id="Caminho_1423" data-name="Caminho 1423" d="M1552.343,153.81a41.615,41.615,0,0,0-23.933,7.021,45.687,45.687,0,0,0-15.879,18.757,59.665,59.665,0,0,0-5.531,25.77q0,14.5,8.039,22.9t23.014,8.4a40.628,40.628,0,0,0,23.818-7.135,45.963,45.963,0,0,0,15.672-18.983,61.18,61.18,0,0,0,5.409-25.648q0-14.726-7.939-22.9T1552.343,153.81Z" transform="translate(-815.113 -16.991)"/>
        <path id="Caminho_1424" data-name="Caminho 1424" d="M1094.295,191.953H995.057a17.226,17.226,0,0,0,2.913-7.017l6.148-35.528a17.261,17.261,0,0,0-8.8-18.528,17.2,17.2,0,0,0,7.25-11.166l6.213-34.292a17.226,17.226,0,0,0-2.848-12.966A17.226,17.226,0,0,0,1020.3,58.385l6.217-35.67A17.226,17.226,0,0,0,1009.53,2.53H905.745a17.226,17.226,0,0,0-14.73,8.3,17.18,17.18,0,0,0-14.727-8.3h-45.1c-8.364,0-16.078,8.992-17.544,17.226H798.713A17.226,17.226,0,0,0,781.486,2.53H736.6a17.226,17.226,0,0,0-16.966,14.241L711.866,60.9a82.127,82.127,0,0,0-7.844-19.944,76.073,76.073,0,0,0-31.229-30.532C659.8,3.506,644.73,0,627.982,0c-21.667,0-41.3,4.946-58.37,14.7a103.426,103.426,0,0,0-36.366,34.686l4.62-26.257a17.253,17.253,0,0,0-16.9-20.587h-45.1a17.226,17.226,0,0,0-16.962,14.221l-7.2,40.577A75.944,75.944,0,0,0,444.7,41.408c-7.4-12.6-18.229-22.428-32.178-29.208-13.211-6.416-28.752-9.67-46.178-9.67H302.124a17.226,17.226,0,0,0-15.185,9.095,17.226,17.226,0,0,0-15.19-9.095H226.643a17.226,17.226,0,0,0-16.966,14.25l-6.822,38.864-20.74-43.326A17.226,17.226,0,0,0,166.581,2.53H121.475a17.227,17.227,0,0,0-15.191,9.1,17.226,17.226,0,0,0-15.177-9.1H45.994A17.226,17.226,0,0,0,29.032,16.751L.264,178.991a17.226,17.226,0,0,0,16.962,20.231H62.561a17.226,17.226,0,0,0,15.074-8.891,17.031,17.031,0,0,0,1.873,2.732,17.226,17.226,0,0,0,13.2,6.159h75.282a72.477,72.477,0,0,0-8.165,3.472,71.344,71.344,0,0,0-26.088,22.272,84.066,84.066,0,0,0-14.853,46.947,58.873,58.873,0,0,0,3.882,21.739,48.681,48.681,0,0,0,12.2,17.85c10.378,9.65,24.021,14.547,40.55,14.547A71.584,71.584,0,0,0,215.947,314a69.826,69.826,0,0,0,24.5-27.623c-.027.153-.057.306-.084.459a109.309,109.309,0,0,0-1.914,20.6c0,15.825,3.533,30.127,10.5,42.491a74.194,74.194,0,0,0,30.977,29.725c12.862,6.714,28.086,10.121,45.247,10.121q5.742,0,11.293-.5l-36.079,66.991a8.8,8.8,0,0,0,7.771,13.008h17.992a8.8,8.8,0,0,0,7.825-4.767l3.969-7.69h13.471l.815,5.053a8.8,8.8,0,0,0,8.693,7.4h18.168a8.8,8.8,0,0,0,8.659-10.408l-.44-2.373a26.6,26.6,0,0,0,5.045,5.681c6.125,5.175,14.041,7.8,23.508,7.8a47.679,47.679,0,0,0,19.378-3.962,40.344,40.344,0,0,0,15.772-12.472l19.067-.325-1.011,5.742a8.8,8.8,0,0,0,8.671,10.336h17.18a8.8,8.8,0,0,0,8.671-7.273l1.661-9.432,21.636-1.3A34.835,34.835,0,0,0,540.86,465.2a41.007,41.007,0,0,0,19.952,4.8,51.669,51.669,0,0,0,26.08-6.642,47.234,47.234,0,0,0,18.221-18.7c4.241-7.805,6.029-9.953,6.029-19.623l28.4.2-6.266,33.729a8.8,8.8,0,0,0,8.671,10.336h43.192a8.8,8.8,0,0,0,8.667-7.273l1.34-7.522a25.1,25.1,0,0,0,8.066,8.95c6.266,4.341,14.221,6.538,23.646,6.538a44.515,44.515,0,0,0,18.137-3.518,30.552,30.552,0,0,0,13.272-10.814,27.809,27.809,0,0,0,3.663-7.79,34.452,34.452,0,0,0,1.914,3.974,33.465,33.465,0,0,0,13.942,13.433,42.432,42.432,0,0,0,19.848,4.517,49.6,49.6,0,0,0,27.493-8,48.581,48.581,0,0,0,16.013-17.039,37.548,37.548,0,0,0,2.944,6.89,34.836,34.836,0,0,0,13.972,13.907,41,41,0,0,0,19.952,4.8,51.668,51.668,0,0,0,26.08-6.642,47.161,47.161,0,0,0,17.54-17.494l-2.247,12.717a8.8,8.8,0,0,0,8.67,10.336h39.678a8.774,8.774,0,0,1,8.64,0H994.36a8.8,8.8,0,0,0,7.825-4.767l3.966-7.69h13.459l.815,5.053a8.8,8.8,0,0,0,8.69,7.4H1047.3a8.8,8.8,0,0,0,8.655-10.408l-13.015-70.222h22.823a17.226,17.226,0,0,0,16.973-14.289l6.213-35.9a17.226,17.226,0,0,0-8.9-18.153,17.2,17.2,0,0,0,7.273-11.17l6.2-34.276a17.227,17.227,0,0,0-2.848-12.966,17.226,17.226,0,0,0,14.374-14.076l6.148-35.3a17.226,17.226,0,0,0-16.9-20.553ZM62.561,182H17.226L45.994,19.757H91.107ZM905.745,19.757H1009.53l-6.2,35.67H944.645l-4.594,26.926H991.83l-6.213,34.288h-51.8L928.525,146.1h58.684L981,182H876.977ZM720.031,113.88,736.6,19.757h44.872L765.137,113.88a47.766,47.766,0,0,0-.689,7.825q0,9.187,4.946,14.267t15.312,5.064q12.426,0,20.021-7.135t9.9-20.021l16.572-94.124h45.1L859.728,113.88q-3.916,23.014-15.879,38.663a74.7,74.7,0,0,1-29.227,23.351,91.32,91.32,0,0,1-37.741,7.71q-26.467,0-42.457-13.808t-15.994-39.582a82.954,82.954,0,0,1,1.6-16.334ZM475.867,19.757h45.106L492.439,182H447.115Zm-173.743,0h64.219q22.314,0,38.663,7.939t24.84,22.451q8.51,14.5,8.514,33.828a85.609,85.609,0,0,1-1.612,16.8,97.526,97.526,0,0,1-17.835,41.883,95.793,95.793,0,0,1-34.747,28.883q-21.054,10.474-46.6,10.47h-64.2ZM138.043,182H92.707l28.768-162.24h45.106l43.961,91.823,16.1-91.823h45.106L243.21,182H197.875L154.151,91.329Zm96.551,76.71a71.636,71.636,0,0,1-2.144,8.747H163.377a23.005,23.005,0,0,0-.176,3.392q0,7.855,4.284,11.959t11.423,4.1a19.468,19.468,0,0,0,17.49-9.639h32.485A55.2,55.2,0,0,1,208,302.078a57.49,57.49,0,0,1-32.485,9.639q-19.278,0-30.789-10.719t-11.511-29.093a69.715,69.715,0,0,1,12.135-38.552,56.85,56.85,0,0,1,20.882-17.835,60.2,60.2,0,0,1,27.309-6.247q19.274,0,30.624,10.443T235.5,248.179a56.223,56.223,0,0,1-.907,10.527ZM360.919,460.471l-2.01-12.456H332.584l-6.435,12.456H308.157l37.97-70.516h19.906l13.057,70.516Zm15.844-102.63q-22.321,14.73-51.548,14.726-21.628,0-37.277-8.169A57.045,57.045,0,0,1,264,341.5q-8.288-14.726-8.288-34.062a91.348,91.348,0,0,1,1.612-17.486,101,101,0,0,1,17.716-42.69,94.751,94.751,0,0,1,34.07-29.227,97.139,97.139,0,0,1,44.876-10.47q30.605,0,47.981,14.726T419.8,262.569H371.235a19.01,19.01,0,0,0-8.747-9.9q-6.213-3.445-15.649-3.445a40.5,40.5,0,0,0-28.649,11.048q-11.848,11.048-15.075,29.686a71.991,71.991,0,0,0-1.148,11.484q0,15.423,8.743,23.351t25.774,7.958q23.7,0,37.741-21.4H328.89l5.742-32.446h84.217l-7.824,43.724q-11.943,20.488-34.269,35.21Zm74.065,74.2a36.471,36.471,0,0,1-6.779,16.124,31.527,31.527,0,0,1-12.357,9.8,38.736,38.736,0,0,1-15.821,3.212q-11.052,0-17.831-5.742t-6.779-16.575a41.658,41.658,0,0,1,.6-6.833l7.331-42.085h17.176l-7.43,42.085a27.942,27.942,0,0,0-.406,3.617q0,4.624,2.615,7.082t7.733,2.461a14.209,14.209,0,0,0,9.846-3.415q3.817-3.415,4.923-9.746l7.434-42.085h17.176Zm72.928-28.527H504.972l-10.045,56.957H477.739l10.045-56.957H469.1l2.412-13.559h54.542ZM477.1,344.945l-13.348,26.467H416.337L504,209.172h52.012l30.375,162.24H538.766l-4.142-26.467Zm120.285,95.479a38.4,38.4,0,0,1-14.868,15.266,42.767,42.767,0,0,1-21.7,5.474,32.173,32.173,0,0,1-15.718-3.717A26.03,26.03,0,0,1,534.6,447a31.478,31.478,0,0,1-3.713-15.469,45.059,45.059,0,0,1,5.321-22.049,38.315,38.315,0,0,1,14.818-15.117,42.589,42.589,0,0,1,21.548-5.424,33.057,33.057,0,0,1,15.871,3.667,25.786,25.786,0,0,1,10.546,10.336,31,31,0,0,1,3.717,15.312,45.735,45.735,0,0,1-5.332,22.176Zm97.787-36.91H669.141l-2.511,14.665h23l-2.3,12.958h-23l-2.814,15.772H687.55l-2.412,13.563H641.962l12.453-70.516h43.2Zm62.309,6.531H739.194a5.213,5.213,0,0,0,.1-1.206,5.857,5.857,0,0,0-1.96-4.571,7.736,7.736,0,0,0-5.359-1.757,9.3,9.3,0,0,0-5.876,1.757,5.711,5.711,0,0,0-2.259,4.77,6.105,6.105,0,0,0,2.81,5.072,53.07,53.07,0,0,0,8.739,4.774,92.837,92.837,0,0,1,9.693,5.022,21.882,21.882,0,0,1,6.481,6.178,16.146,16.146,0,0,1,2.714,9.494,19.523,19.523,0,0,1-3.315,11.147,21.8,21.8,0,0,1-9.543,7.687,35.621,35.621,0,0,1-14.547,2.76q-11.457,0-18.635-4.976t-7.181-14.11a26.785,26.785,0,0,1,.2-2.714h17.881a7.459,7.459,0,0,0,1.811,6.029q2.109,2.2,6.427,2.209a10.035,10.035,0,0,0,6.178-1.707,5.679,5.679,0,0,0,2.259-4.823,6.129,6.129,0,0,0-2.863-5.221,49.027,49.027,0,0,0-8.889-4.521,77.654,77.654,0,0,1-9.494-4.571,21.172,21.172,0,0,1-6.381-5.872,15.453,15.453,0,0,1-2.714-9.344,20.278,20.278,0,0,1,3.419-12.054,22.222,22.222,0,0,1,9.742-7.832,35.311,35.311,0,0,1,14.263-2.714,34.233,34.233,0,0,1,12.858,2.262,19.583,19.583,0,0,1,8.739,6.508,16.68,16.68,0,0,1,3.112,10.095,17.021,17.021,0,0,1-.115,2.232Zm-1.489-38.625H710.668l-43.724-90.671-16.108,90.671H605.5l28.764-162.236-18.019-26.494a109.769,109.769,0,0,1-15.19.919q-20.484,0-36.129-8.514a59.454,59.454,0,0,1-24.163-23.933q-8.517-15.419-8.514-35.44,0-28.768,12.081-51.2A86.6,86.6,0,0,1,578.16,29.652q21.747-12.426,49.822-12.426,20.939,0,36.707,8.4a58.745,58.745,0,0,1,24.277,23.7q8.51,15.312,8.514,35.325,0,26.7-10.47,47.981a88.245,88.245,0,0,1-29.572,34.406L723.327,301l16.108-91.819h45.106Zm33.488,69.762q3.92,4.123,10.749,4.119a19.034,19.034,0,0,0,9.187-2.3,20.2,20.2,0,0,0,7.181-6.63h18.888a40.219,40.219,0,0,1-15.17,18.03,40.83,40.83,0,0,1-22.7,6.58,33.6,33.6,0,0,1-15.771-3.518,24.721,24.721,0,0,1-10.336-9.953,30.1,30.1,0,0,1-3.614-14.968,39.011,39.011,0,0,1,.7-7.434,43.824,43.824,0,0,1,7.786-18.635A42.067,42.067,0,0,1,791.2,393.722a40.933,40.933,0,0,1,19.083-4.571q12.556,0,20.342,6.63t8.8,18.08H820.544a11.558,11.558,0,0,0-4.774-6.58,15.17,15.17,0,0,0-8.487-2.259A19.42,19.42,0,0,0,793.5,410.5q-5.826,5.478-7.434,14.615a28.258,28.258,0,0,0-.5,4.923q.007,7.028,3.924,11.147Zm125.077-.383a38.4,38.4,0,0,1-14.868,15.266,42.767,42.767,0,0,1-21.7,5.474,32.182,32.182,0,0,1-15.722-3.717,26.031,26.031,0,0,1-10.5-10.447,31.509,31.509,0,0,1-3.717-15.469,45.034,45.034,0,0,1,5.325-22.049A38.315,38.315,0,0,1,868.2,394.74a42.581,42.581,0,0,1,21.544-5.424,33.03,33.03,0,0,1,15.871,3.667,25.771,25.771,0,0,1,10.55,10.336,30.944,30.944,0,0,1,3.717,15.312,45.826,45.826,0,0,1-5.313,22.183ZM886.229,371.4l11.507-65.126H842.992L831.484,371.4H786.149l28.768-162.24h45.106L849.2,270.378h55l10.818-61.214h45.1L931.592,371.419Zm82.127,85.338a8.805,8.805,0,0,0-.819,3.713h-39.49L940.5,389.939H957.68l-10.144,57.455h22.49Zm78.9,3.713h-18.183L1027.063,448h-26.318l-6.427,12.456H976.64l.149-.838,37.515-69.67h19.887Zm40.8-215.622h-58.684l-4.594,26.923h51.778l-6.213,34.292H1018.58l-5.294,29.476h58.684l-6.213,35.9H961.737l28.768-162.24h103.786Z" transform="translate(115.001 77.939)"/>
        <path id="Caminho_1425" data-name="Caminho 1425" d="M468.519,614.394q-4.46-3.828-11.779-3.828a21.666,21.666,0,0,0-13.831,4.728q-5.983,4.731-8.659,13.475h38.376a29.331,29.331,0,0,0,.356-3.388Q472.982,618.238,468.519,614.394Z" transform="translate(-153.018 -298.898)"/>
      </g>
    </g>
  </g>
</svg>
