<svg xmlns="http://www.w3.org/2000/svg" xmlns:xlink="http://www.w3.org/1999/xlink" width="211" height="200" viewBox="0 0 211 200">
  <defs>
    <clipPath id="clip-Mottu">
      <rect width="211" height="200"/>
    </clipPath>
  </defs>
  <g id="Mottu" clip-path="url(#clip-Mottu)">
    <g id="Grupo_246" data-name="Grupo 246" transform="translate(-499.34 -414.293)">
      <path id="Caminho_44" data-name="Caminho 44" d="M6.767,187.594a13.157,13.157,0,0,0,10.415-5.088h0l10.535-13.647L149.462,7.729a16.566,16.566,0,0,1,23.224-2.873,16.4,16.4,0,0,1,5.686,8.44,13.16,13.16,0,0,0-15.622,3.95h0L152.216,30.893,65.306,145.815l-34.9,46.208A16.566,16.566,0,0,1,7.186,194.9a16.4,16.4,0,0,1-5.686-8.44A12.463,12.463,0,0,0,6.767,187.594Z" transform="translate(500.561 414.389)" fill="#00b131"/>
      <path id="Caminho_45" data-name="Caminho 45" d="M309.417,180.962l-.12-.539L278.771,14.8A16.608,16.608,0,0,0,259.318,1.7,16.22,16.22,0,0,0,250.4,6.664a14.606,14.606,0,0,1,5.267,1.377,13,13,0,0,1,6.943,9.218h0L265.843,34.2l27.713,148.082.239.3h0a13.163,13.163,0,0,0,15.682,3.95c-.06.239-.12.419-.18.6h0A13.37,13.37,0,0,0,309.417,180.962Z" transform="translate(400.643 414.376)" fill="#00b131"/>
      <path id="Caminho_46" data-name="Caminho 46" d="M16.219,188.1h0l2.993-17L47.942,20.986l-1.018-.12-.539-.06-4.07-3.891L35.073,15.3l-3.112,3.531L10.832,127.768.237,184.69A16.56,16.56,0,0,0,23.82,202.348,13.22,13.22,0,0,1,16.219,188.1Z" transform="translate(501.166 408.793)" fill="#00b131"/>
      <g id="Grupo_141" data-name="Grupo 141" transform="translate(533.127 415.75)">
        <g id="Grupo_140" data-name="Grupo 140" transform="translate(0 0)">
          <path id="Caminho_47" data-name="Caminho 47" d="M225.065,187.594a13.157,13.157,0,0,1-10.415-5.088h0l-10.535-13.647L82.31,7.729A16.509,16.509,0,0,0,53.4,13.3a13.14,13.14,0,0,1,15.622,3.95h0L79.557,30.893l86.91,114.922,34.9,46.208a16.556,16.556,0,0,0,28.97-5.507A13.376,13.376,0,0,1,225.065,187.594Z" transform="translate(-53.4 -1.361)" fill="#00b131"/>
        </g>
      </g>
    </g>
  </g>
</svg>
